<svg width="28" height="28" viewBox="0 0 28 28" fill="none" xmlns="http://www.w3.org/2000/svg">
<mask id="mask0_137_206" style="mask-type:alpha" maskUnits="userSpaceOnUse" x="6" y="6" width="16" height="16">
<g clip-path="url(#clip0_137_206)">
<path opacity="0.2" d="M19.5 8.5V16.5H16.5V11.5H11.5V8.5H19.5Z" fill="black"/>
<path d="M19.5 8H11.5C11.3674 8 11.2402 8.05268 11.1464 8.14645C11.0527 8.24021 11 8.36739 11 8.5V11H8.5C8.36739 11 8.24021 11.0527 8.14645 11.1464C8.05268 11.2402 8 11.3674 8 11.5V19.5C8 19.6326 8.05268 19.7598 8.14645 19.8536C8.24021 19.9473 8.36739 20 8.5 20H16.5C16.6326 20 16.7598 19.9473 16.8536 19.8536C16.9473 19.7598 17 19.6326 17 19.5V17H19.5C19.6326 17 19.7598 16.9473 19.8536 16.8536C19.9473 16.7598 20 16.6326 20 16.5V8.5C20 8.36739 19.9473 8.24021 19.8536 8.14645C19.7598 8.05268 19.6326 8 19.5 8ZM16 19H9V12H16V19ZM19 16H17V11.5C17 11.3674 16.9473 11.2402 16.8536 11.1464C16.7598 11.0527 16.6326 11 16.5 11H12V9H19V16Z" fill="black"/>
</g>
</mask>
<g mask="url(#mask0_137_206)">
<rect x="6" y="6" width="16" height="16" fill="#94A3B8"/>
</g>
<defs>
<clipPath id="clip0_137_206">
<rect width="16" height="16" fill="white" transform="translate(6 6)"/>
</clipPath>
</defs>
</svg>
