<svg width="351" height="252" viewBox="0 0 351 252" fill="none" xmlns="http://www.w3.org/2000/svg"><g id="Group 21"><path id="“Paper UI”" d="M15.4 195.624C14.5467 194.813 13.8853 193.469 13.416 191.592C12.9893 189.715 12.776 187.88 12.776 186.088C13.16 184.808 13.928 184.168 15.08 184.168C16.232 184.168 16.9147 184.829 17.128 186.152C17.128 189.181 17.768 191.464 19.048 193C19.2187 193.384 19.304 193.875 19.304 194.472C19.304 195.027 19.1333 195.496 18.792 195.88C18.4507 196.264 17.9173 196.456 17.192 196.456C16.5093 196.456 15.912 196.179 15.4 195.624ZM24.808 186.152C24.808 189.181 25.448 191.464 26.728 193C26.8987 193.384 26.984 193.875 26.984 194.472C26.984 195.027 26.792 195.496 26.408 195.88C26.0667 196.264 25.5333 196.456 24.808 196.456C23.144 196.456 21.9067 194.792 21.096 191.464C20.6693 189.8 20.456 188.008 20.456 186.088C20.84 184.808 21.608 184.168 22.76 184.168C23.912 184.168 24.5947 184.829 24.808 186.152ZM32.8355 226.472C32.5368 222.077 32.3875 216.147 32.3875 208.68C32.3875 201.171 32.4942 196.307 32.7075 194.088C32.9208 192.723 33.8595 191.827 35.5235 191.4C37.1875 190.931 39.3848 190.696 42.1155 190.696C46.1262 190.696 49.4968 191.571 52.2275 193.32C55.0008 195.027 56.3875 197.565 56.3875 200.936C56.3875 203.709 56.0035 206.035 55.2355 207.912C54.4675 209.747 53.5075 211.112 52.3555 212.008C50.4782 213.459 47.7048 214.184 44.0355 214.184C42.4568 214.184 40.3875 213.971 37.8275 213.544C38.0408 222.077 38.1262 227.453 38.0835 229.672C38.0408 231.891 37.2942 233 35.8435 233C34.9048 233 34.3075 232.829 34.0515 232.488C33.7955 232.147 33.6248 231.912 33.5395 231.784C33.4542 231.613 33.3688 231.379 33.2835 231.08C33.1982 230.781 33.1342 230.547 33.0915 230.376C33.0488 230.163 33.0062 229.864 32.9635 229.48C32.9635 229.096 32.9422 228.797 32.8995 228.584C32.8568 227.944 32.8355 227.24 32.8355 226.472ZM51.0755 201.128C51.0755 199.379 50.1368 198.013 48.2595 197.032C46.3822 196.008 44.3768 195.496 42.2435 195.496C40.1102 195.496 38.6168 195.688 37.7635 196.072C37.5928 198.589 37.5075 200.915 37.5075 203.048C37.5075 205.139 37.5928 207.037 37.7635 208.744C38.9155 208.872 39.7048 208.979 40.1315 209.064C41.2408 209.192 42.1795 209.256 42.9475 209.256C43.7582 209.256 44.2915 209.256 44.5475 209.256C44.8462 209.213 45.3795 209.149 46.1475 209.064C46.9582 208.936 47.5342 208.744 47.8755 208.488C48.2168 208.232 48.6435 207.891 49.1555 207.464C49.6675 207.037 50.0302 206.547 50.2435 205.992C50.7982 204.456 51.0755 202.835 51.0755 201.128ZM80.288 203.112C82.1653 203.112 83.104 204.712 83.104 207.912C83.104 208.253 83.104 208.616 83.104 209L82.976 213.48C82.9333 214.888 82.912 216.275 82.912 217.64L83.872 232.104C83.872 233.171 82.784 233.704 80.608 233.704C80.48 233.704 80.16 233.704 79.648 233.704C79.1787 233.704 78.8373 233.512 78.624 233.128C78.4533 232.744 78.432 232.275 78.56 231.72C78.7307 231.165 78.688 230.547 78.432 229.864C76.4693 231.955 73.8667 233 70.624 233C64.608 233 61.6 228.349 61.6 219.048C61.6 213.885 62.56 209.981 64.48 207.336C66.4427 204.691 69.2373 203.368 72.864 203.368C74.5707 203.368 76.2773 203.667 77.984 204.264C78.5387 203.496 79.3067 203.112 80.288 203.112ZM73.632 208.936C71.2 208.936 69.3867 209.64 68.192 211.048C66.9973 212.456 66.4 215.037 66.4 218.792C66.4 225.107 68.1067 228.264 71.52 228.264C72.416 228.264 73.3973 227.859 74.464 227.048C75.5733 226.237 76.3413 225.32 76.768 224.296C77.5787 221.992 77.984 219.475 77.984 216.744C77.984 214.013 77.6427 212.029 76.96 210.792C76.32 209.555 75.2107 208.936 73.632 208.936ZM97.6065 232.936C96.1558 232.936 94.8118 232.445 93.5745 231.464C93.5745 231.464 93.2972 231.229 92.7425 230.76V249.96C92.4865 250.813 92.0385 251.517 91.3985 252.072C90.7585 252.669 90.0758 252.968 89.3505 252.968C88.2412 252.968 87.6865 252.221 87.6865 250.728V206.12C87.9425 205.011 88.2412 204.221 88.5825 203.752C88.9665 203.283 89.5425 203.048 90.3105 203.048C91.1212 203.048 91.6332 203.24 91.8465 203.624C92.1025 203.965 92.4012 204.947 92.7425 206.568C92.9132 205.715 93.5958 204.925 94.7905 204.2C95.9852 203.475 97.5852 203.112 99.5905 203.112C103.943 203.112 107.036 204.691 108.871 207.848C110.705 211.005 111.623 214.739 111.623 219.048C111.623 223.315 110.364 226.707 107.847 229.224C105.372 231.699 101.959 232.936 97.6065 232.936ZM92.7425 213.736V225.64C92.9985 225.768 93.2972 225.981 93.6385 226.28C94.8758 227.389 96.2198 227.944 97.6705 227.944C103.559 227.944 106.503 224.915 106.503 218.856C106.503 213.693 105.18 210.429 102.535 209.064C101.425 208.467 100.06 208.168 98.4385 208.168C96.8598 208.381 95.5158 209.085 94.4065 210.28C93.2972 211.432 92.7425 212.584 92.7425 213.736ZM124.086 203.368C126.347 203.368 128.502 204.029 130.55 205.352C132.598 206.675 133.622 208.317 133.622 210.28C133.622 212.2 132.79 214.077 131.126 215.912C129.462 217.704 127.243 218.792 124.47 219.176C123.275 219.347 121.483 219.432 119.094 219.432C119.563 223.059 120.48 225.448 121.845 226.6C122.272 227.069 122.848 227.304 123.574 227.304C126.219 227.304 128.438 226.472 130.23 224.808C132.022 223.101 133.302 222.248 134.07 222.248C134.411 222.248 134.923 222.568 135.606 223.208C136.288 223.848 136.63 224.445 136.63 225C136.63 226.109 135.286 227.709 132.598 229.8C131.403 230.781 129.952 231.613 128.246 232.296C126.582 232.936 125.024 233.256 123.574 233.256C119.862 233.256 117.131 230.867 115.382 226.088C114.272 223.144 113.718 219.901 113.718 216.36C113.718 212.819 114.55 209.768 116.214 207.208C117.878 204.648 120.502 203.368 124.086 203.368ZM124.406 207.784C122.784 207.784 121.398 208.701 120.246 210.536C119.819 211.176 119.414 212.627 119.03 214.888C125.003 214.888 127.99 213.416 127.99 210.472C127.99 208.68 126.795 207.784 124.406 207.784ZM148.626 223.656L148.69 230.248C148.69 231.016 148.327 231.72 147.602 232.36C146.919 233 146.236 233.32 145.554 233.32C144.572 233.32 143.954 232.552 143.698 231.016C143.655 230.675 143.484 227.56 143.186 221.672C142.887 215.741 142.311 211.091 141.458 207.72C141.074 206.099 140.882 205.139 140.882 204.84C140.882 203.432 141.735 202.728 143.442 202.728C144.167 202.728 144.743 203.005 145.17 203.56C145.596 204.115 145.852 204.691 145.938 205.288C146.066 205.843 146.172 206.611 146.258 207.592C146.343 208.573 146.407 209.192 146.45 209.448C147.346 207.315 148.69 205.715 150.482 204.648C152.274 203.581 154.236 203.048 156.37 203.048C159.868 203.048 161.618 203.944 161.618 205.736C161.618 206.632 161.298 207.357 160.658 207.912C160.06 208.424 159.356 208.68 158.546 208.68C154.919 208.68 152.359 209.832 150.866 212.136C149.372 214.44 148.626 218.28 148.626 223.656ZM205.025 191.4C205.622 190.717 206.283 190.376 207.009 190.376C207.734 190.376 208.353 190.739 208.865 191.464C209.59 195.176 209.953 199.336 209.953 203.944V208.808C209.953 212.477 209.889 214.653 209.761 215.336C209.633 215.976 209.505 216.701 209.377 217.512C209.249 218.323 209.121 218.941 208.993 219.368C208.907 219.795 208.758 220.371 208.545 221.096C208.075 222.675 207.414 224.083 206.561 225.32C205.281 227.709 203.595 229.587 201.505 230.952C199.414 232.317 197.281 233 195.105 233C192.971 233 190.753 232.061 188.449 230.184C186.187 228.307 184.331 225.96 182.881 223.144C180.662 218.792 179.553 213.779 179.553 208.104C179.553 206.099 179.851 201.341 180.449 193.832C180.747 193.149 181.195 192.552 181.793 192.04C182.433 191.485 183.073 191.208 183.713 191.208C184.651 191.208 185.227 191.848 185.441 193.128C184.843 200.509 184.545 205.181 184.545 207.144C184.545 211.837 185.462 215.997 187.297 219.624C188.449 222.013 189.857 224.019 191.521 225.64C193.227 227.219 194.891 228.008 196.513 228.008C199.201 228.008 201.505 225.917 203.425 221.736C204.235 220.285 204.683 217.96 204.769 214.76C204.769 213.907 204.811 213.309 204.897 212.968L205.025 204.52C205.025 200.595 204.726 197.011 204.129 193.768C204.129 192.872 204.427 192.083 205.025 191.4ZM218.836 192.296C219.519 191.869 220.287 191.656 221.14 191.656C221.993 191.656 222.527 192.147 222.74 193.128C222.783 198.077 222.868 205.48 222.996 215.336C222.996 221.352 222.825 226.451 222.484 230.632C222.399 231.272 221.993 231.848 221.268 232.36C220.585 232.829 219.881 233.064 219.156 233.064C217.961 233.064 217.364 232.445 217.364 231.208C217.791 226.941 218.004 221.651 218.004 215.336L217.62 193.832C217.791 193.235 218.196 192.723 218.836 192.296ZM237.483 185.32C237.483 188.861 236.864 191.699 235.627 193.832C234.859 195.069 233.963 195.688 232.939 195.688C231.573 195.688 230.891 194.963 230.891 193.512C230.891 193.128 230.955 192.701 231.083 192.232C232.363 190.781 233.003 188.499 233.003 185.384C233.259 184.061 233.941 183.4 235.051 183.4C236.203 183.4 237.013 184.04 237.483 185.32ZM245.163 185.32C245.163 188.861 244.544 191.699 243.307 193.832C242.539 195.069 241.728 195.688 240.875 195.688C240.064 195.688 239.467 195.496 239.083 195.112C238.741 194.728 238.571 194.28 238.571 193.768C238.571 193.213 238.635 192.701 238.763 192.232C240.043 190.781 240.683 188.499 240.683 185.384C240.981 184.061 241.685 183.4 242.795 183.4C243.904 183.4 244.693 184.04 245.163 185.32Z" fill="black"/><path id="Vector" d="M247 249.058C251.574 250.341 256.696 250.385 261.36 251.189C262.188 245.181 261.646 238.981 261.962 232.944C263.068 211.745 262.812 190.408 264 169.204L248.828 169" stroke="black" stroke-width="1.65779" stroke-miterlimit="1.5" stroke-linecap="round" stroke-linejoin="round"/><path id="Vector_2" d="M17 248.874C12.4258 250.154 7.30449 250.198 2.63971 251C1.81191 245.006 2.35371 238.82 2.0384 232.797C0.931713 211.647 1.18751 190.359 -1.08658e-07 169.204L15.1721 169" stroke="black" stroke-width="1.65779" stroke-miterlimit="1.5" stroke-linecap="round" stroke-linejoin="round"/><g id="a person/sitting"><g id="BODY"><path id="🖍 Ink" fill-rule="evenodd" clip-rule="evenodd" d="M231.253 70.1822C233.918 69.5333 234.373 63.1322 235.982 64.0438C236.912 64.8543 235.39 66.3834 235.121 67.2983L235.003 67.5307C234.457 68.5962 233.84 69.6582 232.764 70.2725C232.073 71.0021 230.006 70.2858 230.31 71.4477C231.371 74.9496 237.003 77.3744 240.322 78.4648C245.482 80.4069 253.828 79.7498 255.04 73.2395C252.21 72.7202 250.118 67.603 251.862 65.4724C251.922 67.542 252.486 69.6778 254.107 71.08L254.196 71.1623C254.481 71.4231 254.851 71.7346 255.219 71.6766C255.578 71.1755 256.275 71.4606 256.48 71.9894C272.592 74.7808 276.182 92.1968 286.329 102.448C288.356 104.587 290.474 106.634 292.566 108.708C294.702 110.406 296.214 112.774 296.319 115.555C296.51 117.101 296.415 118.649 296.211 120.198L296.197 120.338C296.102 121.298 296.046 122.329 295.59 123.181C295.512 123.47 295.543 123.835 295.294 124.039C295.403 125.806 295.299 127.605 295.001 129.366L295.779 129.714C304.333 133.532 312.986 137.131 321.906 139.994C322.668 139.855 322.606 140.743 322.237 141.147C322.334 141.622 322.345 142.116 322.231 142.586C323.864 142.821 325.523 142.625 327.135 142.327C327.645 141.201 329 141.261 330.048 141.23C331.35 141.148 332.649 141.021 333.942 140.84C337.126 140.127 340.253 139.189 343.406 138.364C345.517 137.769 347.792 137.798 349.909 138.345C350.269 138.749 350.601 139.181 350.881 139.639C352.817 142.646 350.91 145.401 348.209 146.981C343.875 150.059 339.54 153.134 335.187 156.184L334.87 156.41C329.691 160.125 323.865 164.827 321.099 155.786C320.169 155.676 319.354 155.051 318.488 154.682C318.721 155.767 318.025 156.863 317.546 157.793C317.339 158.323 316.775 158.498 316.253 158.493C315.807 158.932 314.969 158.759 314.677 158.239C312.31 157.559 310.353 155.974 308.258 154.742C305.278 152.928 302.152 151.382 299.129 149.645C304.151 170.479 302.923 192.182 301.587 213.39L301.577 213.582C301.411 216.678 300.703 218.143 298.14 220.04C298.587 221.405 298.986 222.775 299.291 224.179C299.398 224.505 299.893 224.198 299.897 224.646C300.807 224.432 302.658 224.66 302.012 225.923C303.84 227.46 305.078 229.542 306.68 231.295C309.502 234.685 313.191 237.207 316.807 239.693C325.122 243.939 325.598 251.297 315.871 253.81L315.773 253.833C314.433 254.156 312.82 254.895 311.521 254.273C309.579 253.898 307.651 253.139 305.75 252.561C298.097 250.023 290.612 247.052 283.359 243.636C283.096 243.512 282.947 243.229 282.941 242.945C283.022 240.602 282.387 227.76 284.811 227.484C285.353 224.86 285.438 222.152 285.339 219.474C284.553 219.227 283.757 218.987 282.943 218.832C282.152 218.583 280.915 218.527 280.385 217.885C280.195 217.816 280.055 217.645 280.084 217.376C280.512 213.352 280.837 209.317 281.074 205.277C281.885 191.729 281.61 178.138 280.686 164.604C278.781 166.255 276.611 167.7 274.195 168.468C272.862 169.807 270.724 170.094 268.904 170.257C266.563 170.402 264.263 169.933 261.953 169.642C258.03 169.147 254.135 169.585 250.241 170.07L248.91 170.237C239.376 171.285 229.073 171.501 220.187 167.418C218.514 167.567 216.437 165.755 215.394 164.544C214.933 164.829 214.48 164.272 214.113 163.979C213.507 163.794 212.819 163.529 212.269 163.142C210.874 163.6 210.121 161.785 209.591 160.797C201.178 146.361 210.547 131.991 209.842 116.682C210.269 104.68 204.806 92.1753 210.086 80.6641C211.154 75.7929 217.401 72.4263 222.103 71.1882C223.618 70.9375 229.355 68.8591 229.986 70.6069C230.285 70.2135 230.796 70.184 231.253 70.1822ZM301.035 226.485C300.247 226.57 299.478 226.618 298.699 226.761C295.854 227.229 293.141 228.333 290.697 229.866C289.906 230.36 289.199 230.984 288.291 231.259C286.424 231.939 284.59 230.252 284.727 228.429C284.206 233.011 284.295 237.726 284.566 242.331C291.867 245.641 299.331 248.592 306.932 251.156C308.643 251.875 310.67 252.105 312.242 253.077C314.922 252.907 317.62 251.964 319.871 250.49C323.606 247.893 321.127 243.775 318.031 241.963C311.216 238.881 305.416 232.645 301.035 226.485ZM286.105 219.708C285.962 221.067 286.992 223.183 286.846 225.89C286.735 226.735 286.472 227.621 286.563 228.47C286.982 231.617 290.384 227.617 291.79 227.179C293.785 226.079 295.954 225.33 298.182 224.921C298.169 224.194 297.689 223.905 297.626 223.187C297.536 222.13 297.54 221.115 297.493 220.048C294.594 221.369 289.179 220.435 286.105 219.708ZM301.722 226.279C301.672 226.313 301.618 226.342 301.564 226.368C301.966 226.857 302.315 227.399 302.793 227.82L302.59 227.503C302.318 227.081 302.039 226.66 301.722 226.279ZM211.697 113.648C211.551 114.243 211.285 114.802 210.886 115.278C212.944 131.997 202.357 145.935 212.091 161.481C212.214 161.538 212.326 161.609 212.434 161.699C212.491 161.661 212.549 161.62 212.605 161.58C217.167 153.49 223.662 146.512 228.836 138.77C229.829 136.826 231.464 134.87 232.09 132.625C221.691 128.51 217.538 122.507 211.697 113.648ZM348.549 139.008C348.108 139.166 347.618 139.036 347.147 139.027C345.477 138.992 343.844 139.428 342.246 139.87C337.599 141.144 332.927 142.271 328.166 143.026C328.07 143.125 327.978 143.227 327.894 143.334C327.977 143.474 327.99 143.649 327.87 143.823C327.152 145.198 327.732 146.882 327.21 148.353C326.454 151.333 324.443 154.694 321.442 155.751C322.443 156.707 323.16 157.937 324.192 158.859C326.725 160.6 329.516 158.006 331.585 156.615C335.523 153.827 339.472 151.058 343.432 148.3C345.206 146.827 349.13 144.97 349.979 143.018C350.523 141.522 349.533 140.064 348.549 139.008ZM321.406 142.807C319.711 146.272 318.733 149.956 317.754 153.676C318.772 153.956 319.71 154.396 320.711 154.692C322.12 155.009 324.111 152.279 324.818 151.196C325.546 149.984 326.056 148.652 326.293 147.257C326.493 145.89 326.28 144.471 326.873 143.206C325.037 143.394 323.174 143.433 321.406 142.807ZM220.621 135.658C222.213 135.211 218.591 138.821 218.382 139.206C216.028 141.992 213.87 144.935 211.729 147.886L211.08 148.782C211.018 148.873 210.588 149.51 210.899 149.429C210.927 149.421 210.94 149.459 210.918 149.474C208.938 149.825 219.666 135.904 220.621 135.658ZM259.432 133.955C259.56 133.566 258.949 133.4 258.82 133.786L258.415 135.011C256.883 139.639 255.361 144.272 253.53 148.792C253.377 149.171 253.99 149.336 254.142 148.961C256.133 144.043 257.759 138.989 259.432 133.955ZM277.234 132.335C276.675 134.989 275.265 137.383 274.41 139.921C276.016 139.566 277.253 138.066 278.189 136.776L278.217 136.733C278.659 136.052 279.172 134.988 280.175 135.468C281.698 136.355 280.607 139.498 280.578 140.988C280.385 143.03 279.723 144.941 279.271 146.925C280.432 146.13 280.765 144.563 281.331 143.341L283.508 138.107V138.107C285.109 135.909 284.365 142.49 284.283 143.112C284.153 144.476 283.579 145.848 283.804 147.222C284.707 146.249 285.275 145.026 285.753 143.785C286.416 142.058 287.021 140.31 287.651 138.573C287.869 138.016 288.696 138.211 288.576 138.825C288.535 140.796 288.503 142.768 288.472 144.74L288.448 146.219C288.444 146.499 288.305 147.318 288.789 147.092C291.327 144.422 291.977 139.084 291.647 135.498C286.658 135.619 281.568 134.97 277.234 132.335ZM321.63 142.294C321.609 142.359 321.586 142.424 321.562 142.489C321.577 142.492 321.592 142.495 321.606 142.499C321.616 142.43 321.624 142.362 321.63 142.294ZM210.903 142.294C210.35 141.884 219.651 129.916 219.049 133.371C216.454 136.448 213.428 139.144 210.903 142.294ZM293.049 115.847C284.35 113.799 276.69 121.449 267.954 120.293C268.055 123.033 268.196 125.792 268.141 128.533C279.741 129.492 278.422 134.44 291.776 133.942C293.502 132.784 294.211 125.685 294.065 123.542C294.176 121.008 292.001 119.87 289.833 119.426C289.05 119.899 287.645 118.486 288.808 117.988C290.338 117.527 291.771 116.801 293.049 115.847ZM228.875 70.9368C225.78 71.2425 222.715 72.0878 219.871 73.394C209.356 76.4359 207.84 88.7705 209.105 98.1175C209.628 105.226 211.651 112.177 215.904 117.958C227.225 135.261 245.977 132.521 263.739 130.233C264.379 129.786 265.464 130.103 266.081 129.513C266.017 129.491 265.959 129.461 265.909 129.422C266.206 129.191 266.435 128.784 266.503 128.352L266.631 128.364V128.364C266.757 125.681 266.656 123.05 266.697 120.387C260.861 118.783 254.601 117.963 248.686 116.366C248.014 116.836 247.239 116.295 246.582 116.039C244.88 115.314 243.162 114.624 241.432 113.968L240.999 113.804C239.871 113.381 238.744 112.946 237.626 112.493L237.208 112.323C236.568 112.06 234.951 111.089 234.253 111.695L234.31 111.817C234.724 112.723 236.15 116.072 234.396 115.41C232.973 114.408 232.235 107.421 230.824 107.359C230.339 108.66 229.992 110.01 229.913 111.401C229.884 111.714 229.474 111.977 229.227 111.685C227.554 109.478 230.081 107.073 230.148 104.743C230.308 102.034 229.112 99.4987 228.516 96.9055L228.479 96.7266C228.13 95.0442 227.586 93.0045 227.73 91.4956L228.077 92.8054C228.425 94.116 228.782 95.4268 229.191 96.719C230.206 99.9463 232.04 103.271 231.021 106.725C233.065 106.793 233.41 110.026 234.178 111.502C235.42 109.887 244.16 113.76 246.155 114.382L246.54 113.944C252.786 106.846 257.295 102.042 266.977 107.657C265.304 102.249 265.143 96.5061 264.858 90.891C264.955 89.8228 264.339 87.005 265.208 86.4219C265.359 86.4439 265.505 86.4896 265.644 86.5504L265.644 87.1039C265.648 88.176 265.698 89.9539 266.146 90.3577L266.352 92.4807C266.891 98.0009 267.503 103.517 269.147 108.837C273.096 111.049 276.698 113.819 280.087 116.807L280.473 116.666C284.661 115.129 289.7 113.16 293.981 115.078C293.909 113.995 293.492 112.959 292.911 112.043C291.941 111.802 291.306 110.777 290.612 110.094C288.411 107.725 286.152 105.409 284.002 102.992C274.827 93.1001 270.924 76.8567 256.517 73.0198C255.564 81.0132 245.361 82.2887 239.213 79.5531L238.979 79.4635C235.157 77.985 230.838 75.7535 229.496 71.6881L229.44 71.5704C229.302 71.2837 229.137 70.9914 228.875 70.9368ZM231.142 116.425C231.154 116.412 231.175 116.429 231.166 116.443C229.374 118.696 227.917 121.769 229.697 124.46C230.026 125.066 229.257 125.648 228.765 125.186C226.294 122.374 229.035 118.562 231.142 116.425ZM293.466 116.934C292.481 117.639 291.425 118.224 290.306 118.686C290.309 118.815 290.246 118.953 290.19 119.055C291.663 119.172 293.196 119.553 294.23 120.63C294.281 120.236 294.33 119.841 294.367 119.446C294.463 118.431 294.289 117.521 293.466 116.934ZM225.73 106.974L225.741 106.92C225.749 106.858 225.842 106.854 225.84 106.92C225.806 107.725 225.221 108.298 224.726 108.872C223.991 109.722 223.256 110.573 222.521 111.424C221.291 112.906 219.481 114.396 219.888 116.543C219.896 117.306 218.942 117.469 218.555 116.908C217.016 113.967 221.86 111.465 223.493 109.567C224.259 108.746 225.468 108.142 225.73 106.974V106.974ZM248.793 115.804C248.816 115.841 248.832 115.881 248.841 115.921C249.099 115.949 249.355 115.978 249.612 116.01L248.793 115.804V115.804ZM210.265 108.925C210.311 109.233 210.354 109.541 210.395 109.849L210.435 110.157L210.442 110.131C210.463 110.051 210.502 109.981 210.554 109.925L210.572 109.907C210.465 109.582 210.363 109.254 210.265 108.925ZM280.981 105.744C281.598 105.678 278.802 107.694 278.647 107.943C278.422 108.14 278.158 107.79 278.399 107.62C279.268 107.006 280.124 106.375 280.981 105.744ZM275.54 99.8152C275.97 99.639 276.261 100.356 275.854 100.555C274.37 101.283 272.801 101.798 271.434 102.755C271.374 102.797 271.299 102.699 271.356 102.654L271.52 102.524C272.779 101.521 274.037 100.432 275.54 99.8152ZM210.777 90.7525C211.192 92.7098 213.435 93.3526 215.177 93.874L215.721 94.0817C217.258 94.6716 218.851 95.3351 219.958 96.5815C220.391 97.9874 217.297 95.5384 216.865 95.4144C214.753 94.1013 210.935 93.8782 210.777 90.7525ZM256.58 72.4769C256.592 72.5764 256.598 72.678 256.601 72.7796C256.731 72.7796 256.86 72.7807 256.99 72.7849C256.839 72.6958 256.7 72.5942 256.58 72.4769Z" fill="black"/></g></g><g id="Group 5"><g id="head/Short 4"><path id="🖍 Ink_2" fill-rule="evenodd" clip-rule="evenodd" d="M244.059 23.3549C245.626 23.0387 247.236 22.8419 248.836 22.9011L248.96 22.9059C250.164 22.954 251.689 23.0605 252.739 23.7608C252.8 23.7001 252.897 23.669 252.985 23.7111C254.233 24.3069 255.606 24.7377 256.921 25.1658C258.229 25.5918 259.587 25.8731 260.958 25.9864C261.474 26.0291 261.916 26.5862 261.589 27.0859C261.511 27.205 261.436 27.3253 261.36 27.4458C261.486 27.4327 261.612 27.4191 261.738 27.4064C262.153 27.3646 262.568 27.8075 262.543 28.2115C262.528 28.4656 262.501 28.7167 262.46 28.9648C262.618 28.9615 262.775 28.9852 262.927 29.0493C263.696 29.3739 263.642 30.2895 263.585 30.986C263.505 31.9527 263.143 32.9766 262.472 33.7C262.973 34.2206 263.328 34.8423 263.54 35.5806C263.693 36.1198 263.779 36.6941 263.736 37.2553L263.723 37.4233C263.671 38.0324 263.567 38.7067 263.129 39.1448C262.904 39.3707 262.627 39.4531 262.363 39.427C262.523 40.8306 262.625 42.2422 262.721 43.6488L262.767 44.3211C262.982 47.572 263.143 50.8441 263.101 54.1004C263.062 57.1435 262.46 60.0973 260.594 62.5682C258.894 64.8181 256.453 66.4767 253.692 67.1072C252.205 67.4476 250.685 67.4717 249.179 67.2548C248.449 67.1494 247.715 66.9878 247.022 66.7328C246.255 66.4496 245.704 66.033 245.188 65.4085C244.944 65.1123 245.061 64.4818 245.547 64.541C246.282 64.6302 246.953 64.7376 247.658 64.955L247.759 64.9868C248.461 65.2117 249.188 65.3794 249.921 65.4506C251.424 65.5962 252.95 65.4496 254.39 64.9938C256.735 64.2509 258.754 62.5953 260.048 60.515C261.584 58.0492 261.758 55.25 261.735 52.4147C261.712 49.3035 261.61 46.1904 261.445 43.0824L261.417 42.5645C261.33 40.9651 261.245 39.3647 261.171 37.7643C261.148 37.2623 261.113 36.7563 261.05 36.2553C260.47 35.916 259.951 35.4481 259.613 34.8708C258.933 35.1519 258.219 35.3547 257.561 35.5164C256.037 35.8911 254.456 35.982 252.905 35.7474C252.487 35.9202 252.06 36.0721 251.627 36.2028C251.51 36.2547 251.393 36.3057 251.276 36.3557C250.232 36.8025 249.172 37.181 248.07 37.4581L247.799 37.5257C247.219 37.6687 246.589 37.8095 245.972 37.8537C245.87 37.8929 245.761 37.926 245.641 37.9551C245.079 38.0916 244.496 38.1348 243.92 38.0866C243.358 38.0394 242.953 37.4722 243.262 36.9411C243.488 36.5535 243.716 36.167 243.946 35.7814C243.145 36.1148 242.319 36.3919 241.486 36.6268C240.644 36.8638 239.791 37.0636 238.937 37.2473C238.48 37.3447 238.021 37.431 237.565 37.5284C237.239 37.5977 236.738 37.6338 236.472 37.8487C236.178 38.0846 236.094 38.6348 235.983 38.9742C235.836 39.4149 235.699 39.8577 235.573 40.3055C235.323 41.199 235.118 42.1056 234.96 43.0213C234.801 43.9379 234.695 44.8636 234.635 45.7923C234.576 46.72 234.602 47.6537 234.507 48.5774C234.456 49.0674 233.93 49.3194 233.541 48.977C233.496 48.9369 233.45 48.8962 233.404 48.8552L233.336 48.7933C233.004 48.4921 232.682 48.1728 232.416 47.8134C232.368 47.7471 232.321 47.6778 232.278 47.6076C232.271 47.6076 232.265 47.6056 232.258 47.6005L232.184 47.545C231.372 46.9406 230.016 46.1527 229.224 47.1568C228.972 47.4766 228.843 47.8839 228.735 48.2769L228.547 48.9801C228.425 49.4392 228.311 49.9008 228.244 50.3706C228.092 51.4228 228.169 52.6356 228.893 53.4789C229.182 53.8163 229.58 54.0573 230.025 54.1205C230.273 54.1546 230.518 54.1125 230.764 54.0813C231.014 54.0502 231.255 54.1004 231.505 54.0763C231.903 54.0372 232.076 54.5131 231.928 54.8123C231.847 54.9729 231.753 55.1115 231.646 55.2289C231.732 55.3032 231.814 55.3835 231.894 55.4679C232.129 55.5432 232.339 55.7048 232.497 55.9187C232.625 56.0914 232.691 56.2791 232.702 56.4769C232.716 56.5261 232.728 56.5763 232.739 56.6275L232.954 56.9771C233.002 57.0538 233.049 57.1295 233.096 57.2038C233.644 58.0672 234.253 58.7981 235.009 59.4869C235.737 60.1495 236.527 60.7429 237.211 61.4537L237.291 61.5381C237.929 62.2099 238.601 63.0231 238.351 63.9999C238.287 64.2509 237.937 64.4316 237.708 64.2619C236.972 63.7157 236.601 62.8503 235.977 62.1876C235.334 61.5049 234.622 60.8915 233.978 60.2108C233.368 59.5682 232.887 58.8403 232.525 58.0391C232.38 58.1988 232.17 58.3122 231.878 58.3564C231.376 58.4317 230.908 58.1375 230.689 57.7028C230.548 57.765 230.405 57.8212 230.26 57.8654C229.499 58.0984 229.02 57.252 229.307 56.6265C229.461 56.2912 229.653 56 229.891 55.755C229.147 55.6526 228.39 55.2681 227.901 54.7882C226.674 53.5824 226.505 51.7701 226.781 50.1587C226.928 49.3043 227.181 48.4399 227.509 47.6377C227.566 47.4981 227.628 47.3576 227.695 47.219C227.658 47.218 227.619 47.2019 227.595 47.1708C227.374 46.8676 227.104 46.6196 226.939 46.2803C226.787 45.969 226.619 45.6538 226.499 45.3295C226.253 44.6658 226.133 43.9169 226.052 43.2151C225.887 41.7783 225.951 40.3506 226.171 38.923C226.545 36.4913 227.45 34.1642 228.782 32.1223C228.709 32.0841 228.64 32.0381 228.575 31.9837L228.543 31.9558L228.491 31.9088C228.111 31.5647 228.144 30.9199 228.491 30.5714L228.601 30.4614C228.74 30.3234 228.86 30.214 229.084 30.0638C229.117 30.0416 229.151 30.0207 229.185 30.0012C229.068 29.7841 229.027 29.5303 229.109 29.2503C229.394 28.2748 230.798 28.3094 231.687 28.7348C232.671 27.8564 233.763 27.0938 234.946 26.4764C237.763 25.0065 240.949 23.9814 244.059 23.3549ZM229.496 49.0473C230.022 48.8756 230.721 49.236 231.194 49.4529C231.793 49.728 232.303 50.1346 232.797 50.5643C233.043 50.7792 233.087 51.1306 233.026 51.4308C233.02 51.4609 233.014 51.492 233.007 51.5232C232.942 51.8434 232.584 52.0954 232.268 52.0864C231.606 52.0683 231.291 51.4971 230.917 51.0131C230.873 51.0914 230.817 51.1637 230.749 51.2179L230.703 51.2541C230.547 51.3724 230.376 51.467 230.171 51.4579C230.025 51.4509 229.886 51.4137 229.757 51.3465C229.436 51.1768 229.294 50.7611 229.382 50.4228C229.436 50.2099 229.56 50.0433 229.723 49.9278L229.662 49.8863C229.533 49.7961 229.414 49.7009 229.322 49.5604L229.301 49.5272H229.309C229.209 49.3545 229.274 49.1196 229.496 49.0473Z" fill="black"/></g><g id="face/Smile"><path id="🖍 Ink_3" fill-rule="evenodd" clip-rule="evenodd" d="M249.712 60.7338C249.037 60.4585 248.434 59.9992 247.994 59.4125C247.841 59.2086 247.801 58.9932 247.833 58.7962C247.87 58.5747 248.001 58.374 248.179 58.2393C248.359 58.1042 248.583 58.0376 248.8 58.0716C248.988 58.1011 249.176 58.2042 249.324 58.4181L249.355 58.4609C249.617 58.815 249.958 59.1056 250.346 59.2928C250.721 59.4733 251.14 59.5576 251.573 59.5086C252.399 59.4153 252.968 58.9688 253.573 58.3624C253.648 58.2858 253.723 58.2069 253.799 58.1266C253.846 58.0539 253.912 58.0072 253.986 57.9827C254.067 57.9554 254.159 57.957 254.244 57.9864C254.325 58.0148 254.398 58.0687 254.446 58.1403C254.493 58.2084 254.519 58.2925 254.511 58.3892C254.455 59.0177 254.127 59.5785 253.66 60.0189C253.142 60.508 252.455 60.8463 251.808 60.965C251.095 61.0957 250.369 61.0021 249.712 60.7338V60.7338ZM252.144 51.0393C252.902 51.5001 254.057 52.5747 253.242 53.7172C252.282 54.7245 250.899 53.5695 250.218 53.0472C249.587 52.6423 248.877 53.6835 249.463 54.1562C254.385 57.8003 256.382 51.1598 252.527 50.4974C252.103 50.4244 251.945 50.8967 252.144 51.0393ZM243.324 46.8003C243.408 45.7605 244.991 45.5244 245.149 46.5533C245.29 47.475 245.124 48.3217 244.708 49.1515C244.312 49.9442 243.315 49.5744 243.239 48.8525C243.138 47.8848 243.272 47.4471 243.324 46.8003ZM255.378 46.34C255.599 46.0508 255.918 45.8534 256.3 45.965C257.493 46.3137 257.141 48.0077 256.722 48.8323C256.494 49.2801 255.758 49.3936 255.426 48.9994C254.884 48.3564 254.624 47.0724 255.313 46.4391C255.332 46.4063 255.353 46.3733 255.378 46.34ZM244.692 42.2506L244.88 42.2176C245.463 42.1167 246.188 42.0198 246.601 42.4886C246.82 42.7372 246.895 43.1993 246.601 43.4372C246.083 43.8559 245.512 43.6936 244.892 43.7291C244.381 43.7584 243.89 43.8429 243.398 43.9836C242.318 44.2921 241.439 44.8554 240.517 45.4738C240.396 45.5549 240.272 45.4002 240.33 45.2871C240.862 44.2446 241.894 43.3883 242.927 42.8663C243.478 42.5877 244.082 42.3566 244.692 42.2506ZM254.29 41.7836L254.435 41.8131C256.005 42.1413 258.044 42.7968 258.788 44.3389C258.816 44.557 258.786 44.6037 258.762 44.6343L258.754 44.6444C258.734 44.6705 258.718 44.7064 258.623 44.7361C258.597 44.7299 258.571 44.7232 258.544 44.7162C258.203 44.6269 257.933 44.5039 257.672 44.3762L257.389 44.2368C257.061 44.0758 256.73 43.9206 256.379 43.8061C255.629 43.5617 254.859 43.3896 254.076 43.2977C253.907 43.2778 253.743 43.2205 253.614 43.1224C253.492 43.0293 253.399 42.9004 253.356 42.729C253.301 42.5072 253.317 42.3393 253.436 42.1392C253.525 41.9889 253.653 41.8848 253.8 41.825C253.95 41.764 254.121 41.7496 254.29 41.7836Z" fill="black"/></g><g id="accessories/Glasses"><path id="🖍 Ink_4" fill-rule="evenodd" clip-rule="evenodd" d="M262.011 48.3203C261.054 54.795 254.372 55.511 253.185 49.0832C253.376 48.9998 253.513 48.8355 253.484 48.5167C253.477 47.1159 253.912 45.6354 255.176 44.8564C256.482 44.0526 258.01 43.9729 259.521 43.9931C262.405 43.9245 262.344 46.3348 262.011 48.3203M252.139 45.5044C251.234 45.4662 250.089 45.4981 249.278 46.0495C249.055 45.4494 248.476 44.8085 247.891 44.4658C250.066 44.5295 252.305 44.3154 254.496 44.1493C253.971 44.5068 253.483 45.0439 253.166 45.6649C252.872 45.508 252.45 45.5226 252.139 45.5044M248.15 49.0067C245.64 57.6447 239.376 53.8797 238.693 52.7727C237.462 50.9408 237.23 46.4877 238.303 45.297C239.839 44.2204 242.013 44.4975 243.828 44.4711C247.161 44.516 249.528 45.5132 248.15 49.0067M264.975 45.0338C264.293 44.9446 263.564 44.9267 262.93 45.2269C262.735 44.3973 262.122 43.7037 261.43 43.3985C261.347 43.2935 261.359 43.237 261.073 43.2528C259.317 42.7249 257.351 43.0042 255.663 43.5456C252.997 43.7701 250.201 43.9471 247.512 44.2564C244.994 43.1255 237.395 42.9597 236.922 45.7471C236.328 45.6583 235.317 45.1907 234.817 45.8249C231.156 45.2042 227.372 46.0669 223.695 46.4511C222.769 46.6216 222.292 48.4587 223.343 48.4336C223.934 48.2733 223.325 47.2897 224.12 47.2157C227.668 46.8281 231.139 46.2784 234.724 46.214C234.599 46.833 237.094 46.8732 237.131 46.5118C237.137 46.5145 237.142 46.5163 237.148 46.5187C236.531 48.8169 237.088 52.1242 238.202 53.5493C239.763 55.4154 243.684 55.9507 245.422 54.7501C247.664 53.642 249.997 48.0796 249.341 46.2317C250.531 45.8548 251.706 45.9679 252.94 46.1599C252.658 46.958 252.17 48.9226 252.872 49.093C252.743 52.9935 256.293 55.4273 259.565 53.8272C262.398 52.4976 263.388 48.2891 263.041 45.7346C263.394 46.4159 266.355 45.6741 264.975 45.0338" fill="black"/></g><g id="facial-hair/Goatee 1"><path id="🖍 Ink_5" fill-rule="evenodd" clip-rule="evenodd" d="M251.652 55.1848C250.536 54.741 248.531 55.1283 247.803 55.2823C246.111 55.6405 244.408 56.4145 243.882 57.6272C243.289 58.9939 244.472 59.4241 244.646 59.3539C245.818 59.4267 247.213 58.7767 248.44 58.609C249.437 58.4716 250.488 58.3517 251.422 57.8844C252.104 58.2154 253.644 58.3943 254.886 58.6837C255.944 58.93 256.403 59.4643 257.384 59.3507C258.56 59.2146 258.079 57.0317 256.768 56.1475C255.334 55.1797 252.908 54.7872 251.652 55.1848ZM253.863 64.5181C252.886 64.7283 252.821 62.8386 252.711 62.171C252.626 61.6494 252.144 60.3044 250.921 60.3624C249.699 60.4204 249.239 61.5474 249.301 62.2483C249.342 62.7028 249.816 65.0052 248.301 65.2964C247.336 65.2934 246.218 65.2359 245.203 65.0706C244.008 64.8317 242.454 63.9953 242.043 65.6426C241.895 66.2354 247.16 67.9968 249.496 68.1561C251.866 68.5798 254.638 67.9282 256.324 66.3285C256.708 65.9646 257.789 64.454 257.866 64.0839C258.028 63.3063 257.653 62.8059 256.563 63.08C255.793 63.443 254.491 64.383 253.863 64.5181Z" fill="black"/></g></g></g></svg>