<svg width="156" height="36" viewBox="0 0 156 36" fill="none" xmlns="http://www.w3.org/2000/svg">
<g clip-path="url(#clip0_0_1)">
<path d="M26.2141 31.5H2.28608C1.88497 31.5034 1.49015 31.4002 1.14201 31.2009C0.793859 31.0017 0.504869 30.7135 0.304585 30.366C0.106066 30.029 0.000622816 29.6453 -0.000958511 29.2542C-0.00253984 28.8631 0.0997972 28.4786 0.295585 28.14L12.2581 7.149C12.6691 6.429 13.4131 6 14.2501 6C15.0871 6 15.8311 6.429 16.2406 7.149L28.2046 28.14C28.3999 28.4787 28.502 28.8632 28.5004 29.2542C28.4988 29.6452 28.3937 30.0289 28.1956 30.366C27.9953 30.7135 27.7063 31.0017 27.3582 31.2009C27.01 31.4002 26.6152 31.5034 26.2141 31.5ZM14.2501 7.5C14.1107 7.49799 13.9733 7.53339 13.8522 7.60251C13.7311 7.67163 13.6307 7.77194 13.5616 7.893L1.59908 28.884C1.53436 28.9947 1.50049 29.1207 1.50102 29.2489C1.50155 29.3771 1.53645 29.5029 1.60208 29.613C1.67188 29.7321 1.7719 29.8306 1.89202 29.8985C2.01213 29.9665 2.14808 30.0015 2.28608 30H26.2126C26.3508 30.0016 26.487 29.9667 26.6074 29.8987C26.7278 29.8307 26.828 29.7322 26.8981 29.613C26.9634 29.5028 26.9981 29.3771 26.9987 29.2489C26.9992 29.1208 26.9655 28.9948 26.9011 28.884L14.9371 7.893C14.8683 7.77195 14.7682 7.67161 14.6474 7.60247C14.5265 7.53334 14.3893 7.49794 14.2501 7.5Z" fill="#5389FD"/>
<path d="M33.8839 31.5H12.6169C11.8429 31.5 11.1544 31.107 10.7749 30.4485C10.5946 30.1404 10.4997 29.7898 10.5 29.4328C10.5003 29.0758 10.5957 28.7254 10.7764 28.4175L21.4099 10.0485C21.7909 9.393 22.4779 9 23.2504 9C24.0229 9 24.7099 9.393 25.0909 10.047L35.7244 28.4145C36.0934 29.052 36.0934 29.8125 35.7259 30.447C35.3464 31.107 34.6579 31.5 33.8839 31.5ZM23.2504 10.5C23.1417 10.4977 23.0343 10.5242 22.9391 10.5769C22.844 10.6296 22.7646 10.7066 22.7089 10.8L12.0739 29.1675C12.0251 29.2475 11.9993 29.3393 11.9993 29.433C11.9993 29.5267 12.0251 29.6185 12.0739 29.6985C12.1295 29.7924 12.2091 29.8698 12.3045 29.9228C12.4 29.9758 12.5078 30.0025 12.6169 30H33.8854C33.9943 30.0027 34.102 29.9761 34.1972 29.9231C34.2925 29.8701 34.3718 29.7925 34.4269 29.6985C34.4756 29.6185 34.5014 29.5267 34.5014 29.433C34.5014 29.3393 34.4756 29.2475 34.4269 29.1675L23.7919 10.8C23.7362 10.7066 23.6568 10.6296 23.5616 10.5769C23.4665 10.5242 23.3591 10.4977 23.2504 10.5Z" fill="#3877FF" fill-opacity="0.5"/>
</g>
<path d="M147.75 14.265C146.625 13.8776 145.632 13.1809 144.885 12.255C144.062 11.2233 143.013 10.3937 141.82 9.82953C140.626 9.26536 139.32 8.98162 138 9C136.225 8.87426 134.467 9.42187 133.077 10.5338C131.687 11.6457 130.767 13.2403 130.5 15C131.026 14.1199 131.818 13.4293 132.761 13.0277C133.704 12.6261 134.751 12.5341 135.75 12.765C136.873 13.1637 137.864 13.8644 138.615 14.79C139.443 15.8134 140.493 16.6345 141.687 17.1907C142.88 17.747 144.184 18.0238 145.5 18C147.275 18.1257 149.033 17.5781 150.423 16.4662C151.813 15.3543 152.733 13.7597 153 12C152.484 12.8907 151.694 13.5917 150.749 13.9995C149.804 14.4073 148.752 14.5004 147.75 14.265ZM128.25 21.735C129.375 22.1224 130.368 22.8191 131.115 23.745C131.938 24.7767 132.987 25.6063 134.18 26.1705C135.374 26.7346 136.68 27.0184 138 27C139.775 27.1257 141.533 26.5781 142.923 25.4662C144.313 24.3543 145.233 22.7597 145.5 21C144.974 21.8801 144.182 22.5707 143.239 22.9723C142.295 23.3739 141.249 23.4659 140.25 23.235C139.127 22.8363 138.136 22.1356 137.385 21.21C136.555 20.1891 135.504 19.3699 134.311 18.8138C133.119 18.2578 131.816 17.9796 130.5 18C128.725 17.8743 126.967 18.4219 125.577 19.5338C124.187 20.6457 123.267 22.2403 123 24C123.516 23.1093 124.306 22.4083 125.251 22.0005C126.196 21.5927 127.248 21.4996 128.25 21.735Z" fill="#5389FD"/>
<g clip-path="url(#clip1_0_1)">
<path d="M60 18V36H96V0H60V18ZM81.8445 29.439C82.0065 29.3475 82.611 28.998 83.1825 28.6665L84.2175 28.0665L84.435 28.3875C84.738 28.8495 85.3995 29.484 85.8 29.6955C86.949 30.3015 88.5255 30.216 89.3025 29.5185C89.592 29.274 89.7735 28.911 89.7735 28.506C89.7735 28.482 89.7735 28.4595 89.772 28.4355V28.4385C89.772 28.0215 89.7195 27.8385 89.502 27.5235C89.223 27.1245 88.6515 26.7885 87.0285 26.0835C85.1715 25.284 84.372 24.7875 83.64 23.9985C83.199 23.4975 82.8585 22.8945 82.6605 22.2315L82.6515 22.1985C82.515 21.69 82.4805 20.415 82.5885 19.902C82.971 18.1065 84.3255 16.857 86.28 16.485C86.9145 16.365 88.389 16.41 89.0115 16.5645C89.9265 16.7925 90.6225 17.2005 91.263 17.8635C91.5945 18.2175 92.0865 18.8625 92.1255 19.0185C92.1375 19.0635 90.5715 20.1135 89.6235 20.703C89.589 20.7255 89.451 20.577 89.298 20.349C88.833 19.674 88.3485 19.383 87.606 19.332C86.514 19.257 85.812 19.8285 85.818 20.7825C85.818 20.799 85.8165 20.8185 85.8165 20.838C85.8165 21.0645 85.8735 21.2775 85.974 21.4635L85.971 21.456C86.211 21.9525 86.658 22.251 88.056 22.8555C90.6345 23.9655 91.737 24.696 92.4225 25.7355C93.1875 26.895 93.36 28.7475 92.8395 30.1245C92.2695 31.6215 90.852 32.6385 88.857 32.9745C88.2405 33.084 86.778 33.0675 86.115 32.9475C84.669 32.6895 83.298 31.9755 82.452 31.038C82.1205 30.6735 81.474 29.718 81.5145 29.6505C81.531 29.6265 81.6795 29.535 81.8445 29.439ZM67.887 18.0975C67.887 17.2965 67.9035 16.6275 67.926 16.6125C67.944 16.5885 70.7955 16.5765 74.2515 16.5825L80.544 16.6005L80.5605 18.069L80.5725 19.5435H75.885V32.8575H72.57V19.5435H67.887V18.0975Z" fill="#5389FD"/>
</g>
<defs>
<clipPath id="clip0_0_1">
<rect width="36" height="36" fill="white"/>
</clipPath>
<clipPath id="clip1_0_1">
<rect width="36" height="36" fill="white" transform="translate(60)"/>
</clipPath>
</defs>
</svg>
